<?xml version="1.0" encoding="utf-8"?>
<!-- Generator: Adobe Illustrator 23.0.1, SVG Export Plug-In . SVG Version: 6.00 Build 0)  -->
<svg version="1.1" id="Layer_1" xmlns:serif="http://www.serif.com/"
	 xmlns="http://www.w3.org/2000/svg" xmlns:xlink="http://www.w3.org/1999/xlink" x="0px" y="0px" viewBox="0 0 456 456"
	 style="enable-background:new 0 0 456 456;" xml:space="preserve">
<style type="text/css">
	.st0{fill:#020202;}
</style>
<g>
	<path class="st0" d="M353,48L353,48c-29.1,0-52.9,23.8-52.9,52.9v6.5H153.9v-6.5c0-29.1-23.8-52.8-52.8-52.8h0
		c-29.3,0-53,23.7-53,53v65.7v31.8v194.9c0,7,5.7,12.7,12.7,12.7h332.6c7,0,12.7-5.7,12.7-12.7V198.4v-31.8V101
		C406,71.7,382.3,48,353,48z M300.1,139.1v27.6H153.9v-27.6H300.1z M79.8,101c0-11.7,9.5-21.2,21.2-21.3
		c11.7,0.1,21.1,9.6,21.1,21.3v6.3h0c-7.6,0-13.8,6.2-13.8,13.8v4.2c0,7.6,6.2,13.8,13.8,13.8h0v27.6H79.8V101z M374.2,374.2H79.8
		V198.4h74.1h146.3h74.1V374.2z M331.9,166.7v-27.6l0,0c7.6,0,13.8-6.2,13.8-13.8v-4.2c0-7.6-6.2-13.8-13.8-13.8l0,0V101
		c0-11.7,9.5-21.2,21.1-21.3c11.7,0,21.2,9.5,21.2,21.3v65.7H331.9z"/>
	<path class="st0" d="M256.7,225.9l-58.6,0c-23.7,0-44.9,19.3-46.2,43c-1.4,26.3,19.5,48.1,45.5,48.1h58.6c23.7,0,44.9-19.3,46.2-43
		C303.6,247.7,282.6,225.9,256.7,225.9z M256.7,285.2h-59c-7.1,0-13.3-5.2-14.1-12.2c-0.9-8.3,5.6-15.4,13.7-15.4h59
		c7.1,0,13.3,5.2,14.1,12.2C271.3,278.2,264.8,285.2,256.7,285.2z"/>
</g>
</svg>
