<?xml version="1.0" encoding="utf-8"?>
<!-- Generator: Adobe Illustrator 23.0.1, SVG Export Plug-In . SVG Version: 6.00 Build 0)  -->
<svg version="1.1" id="Layer_1" xmlns:serif="http://www.serif.com/"
	 xmlns="http://www.w3.org/2000/svg" xmlns:xlink="http://www.w3.org/1999/xlink" x="0px" y="0px" viewBox="0 0 456 456"
	 style="enable-background:new 0 0 456 456;" xml:space="preserve">
<style type="text/css">
	.st0{fill:#020202;}
</style>
<g>
	<path class="st0" d="M347.1,57.3L347.1,57.3c-27.7,0-50.4,22.7-50.4,50.4v6.2H157.3v-6.2c0-27.7-22.7-50.4-50.4-50.4h0
		C79,57.3,56.3,80,56.3,107.9v62.6v30.3v185.8c0,6.7,5.4,12.1,12.1,12.1h317.1c6.7,0,12.1-5.4,12.1-12.1V200.8v-30.3v-62.6
		C397.7,80,375,57.3,347.1,57.3z M296.7,144.2v26.3H157.3v-26.3H296.7z M86.6,107.9c0-11.2,9.1-20.2,20.2-20.3
		c11.1,0.1,20.1,9.1,20.1,20.3v6h0c-7.3,0-13.2,5.9-13.2,13.2v4c0,7.3,5.9,13.2,13.2,13.2h0v26.3H86.6V107.9z M367.4,368.4H86.6
		V200.8h70.6h139.5h70.6V368.4z M327,170.5v-26.3l0,0c7.3,0,13.2-5.9,13.2-13.2v-4c0-7.3-5.9-13.2-13.2-13.2l0,0v-6
		c0-11.1,9-20.2,20.1-20.3c11.2,0,20.2,9.1,20.2,20.3v62.6H327z"/>
	<path class="st0" d="M255.3,226.9h-55.9c-22.6,0-42.8,18.4-44.1,41c-1.4,25,18.6,45.8,43.4,45.8h55.9c22.6,0,42.9-18.4,44.1-41
		C300,247.7,280,226.9,255.3,226.9z M255.3,283.5h-56.2c-6.7,0-12.7-4.9-13.4-11.6c-0.9-7.9,5.3-14.7,13.1-14.7h56.2
		c6.7,0,12.7,4.9,13.4,11.6C269.3,276.8,263,283.5,255.3,283.5z"/>
</g>
</svg>
