<?xml version="1.0" encoding="utf-8"?>
<!-- Generator: Adobe Illustrator 23.0.1, SVG Export Plug-In . SVG Version: 6.00 Build 0)  -->
<svg version="1.1" id="Layer_1" xmlns="http://www.w3.org/2000/svg" xmlns:xlink="http://www.w3.org/1999/xlink" x="0px" y="0px"
	 viewBox="0 0 800 800" style="enable-background:new 0 0 800 800;" xml:space="preserve">
<style type="text/css">
	.st0{fill:#020202;}
</style>
<g>
	<path class="st0" d="M668.6,16L668.6,16c-62.2,0-113.1,50.9-113.1,113.1V143h-313v-13.9C242.5,66.9,191.6,16,129.4,16h0
		C66.8,16,16,66.8,16,129.4V270v67.9v416.9c0,15,12.2,27.2,27.2,27.2h711.6c15,0,27.2-12.2,27.2-27.2V337.9V270V129.4
		C782,66.8,731.2,16,668.6,16z M555.5,210.9v59h-313v-59H555.5z M83.9,129.4c0-25.1,20.4-45.4,45.4-45.5
		c24.9,0.1,45.2,20.5,45.2,45.5V143h0c-16.3,0-29.5,13.2-29.5,29.5v8.9c0,16.3,13.2,29.5,29.5,29.5h0v59H83.9V129.4z M714.1,714.1
		H83.9V337.9h158.6h313h158.6V714.1z M623.4,270v-59l0,0c16.3,0,29.5-13.2,29.5-29.5v-8.9c0-16.3-13.2-29.5-29.5-29.5l0,0v-13.6
		c0-24.9,20.3-45.3,45.2-45.5c25,0,45.4,20.4,45.4,45.5V270H623.4z"/>
	<path class="st0" d="M462.5,396.6H337.1c-50.8,0-96.2,41.4-98.9,92.1c-3,56.2,41.8,102.9,97.3,102.9h125.4
		c50.8,0,96.2-41.4,98.9-92.1C562.8,443.3,518,396.6,462.5,396.6z M462.5,523.6l-126.2,0c-15.1,0-28.4-11.1-30.1-26.1
		c-2-17.8,11.9-33,29.3-33h126.2c15.1,0,28.4,11.1,30.1,26.1C493.8,508.4,479.9,523.6,462.5,523.6z"/>
</g>
</svg>
